<svg width="49" height="48" viewBox="0 0 49 48" fill="none" xmlns="http://www.w3.org/2000/svg">
<circle opacity="0.5" cx="24.334" cy="24" r="24" fill="#DCFCE7"/>
<path d="M31.5 17.25H28.9012L27.6234 15.3338C27.555 15.2311 27.4623 15.147 27.3535 15.0888C27.2448 15.0306 27.1233 15.0001 27 15H21C20.8767 15.0001 20.7552 15.0306 20.6465 15.0888C20.5377 15.147 20.445 15.2311 20.3766 15.3338L19.0978 17.25H16.5C15.9033 17.25 15.331 17.4871 14.909 17.909C14.4871 18.331 14.25 18.9033 14.25 19.5V30C14.25 30.5967 14.4871 31.169 14.909 31.591C15.331 32.0129 15.9033 32.25 16.5 32.25H31.5C32.0967 32.25 32.669 32.0129 33.091 31.591C33.5129 31.169 33.75 30.5967 33.75 30V19.5C33.75 18.9033 33.5129 18.331 33.091 17.909C32.669 17.4871 32.0967 17.25 31.5 17.25ZM32.25 30C32.25 30.1989 32.171 30.3897 32.0303 30.5303C31.8897 30.671 31.6989 30.75 31.5 30.75H16.5C16.3011 30.75 16.1103 30.671 15.9697 30.5303C15.829 30.3897 15.75 30.1989 15.75 30V19.5C15.75 19.3011 15.829 19.1103 15.9697 18.9697C16.1103 18.829 16.3011 18.75 16.5 18.75H19.5C19.6235 18.7501 19.7451 18.7197 19.854 18.6614C19.963 18.6032 20.0558 18.519 20.1244 18.4163L21.4012 16.5H26.5978L27.8756 18.4163C27.9442 18.519 28.037 18.6032 28.146 18.6614C28.2549 18.7197 28.3765 18.7501 28.5 18.75H31.5C31.6989 18.75 31.8897 18.829 32.0303 18.9697C32.171 19.1103 32.25 19.3011 32.25 19.5V30ZM24 20.25C23.1842 20.25 22.3866 20.4919 21.7083 20.9452C21.0299 21.3984 20.5012 22.0427 20.189 22.7964C19.8768 23.5502 19.7951 24.3796 19.9543 25.1797C20.1134 25.9799 20.5063 26.7149 21.0832 27.2918C21.6601 27.8687 22.3951 28.2616 23.1953 28.4207C23.9954 28.5799 24.8248 28.4982 25.5786 28.186C26.3323 27.8738 26.9766 27.3451 27.4298 26.6667C27.8831 25.9884 28.125 25.1908 28.125 24.375C28.1238 23.2814 27.6888 22.2329 26.9154 21.4596C26.1421 20.6862 25.0936 20.2512 24 20.25ZM24 27C23.4808 27 22.9733 26.846 22.5416 26.5576C22.1099 26.2692 21.7735 25.8592 21.5748 25.3795C21.3761 24.8999 21.3242 24.3721 21.4254 23.8629C21.5267 23.3537 21.7767 22.886 22.1438 22.5188C22.511 22.1517 22.9787 21.9017 23.4879 21.8004C23.9971 21.6992 24.5249 21.7511 25.0045 21.9498C25.4842 22.1485 25.8942 22.4849 26.1826 22.9166C26.471 23.3483 26.625 23.8558 26.625 24.375C26.625 25.0712 26.3484 25.7389 25.8562 26.2312C25.3639 26.7234 24.6962 27 24 27Z" fill="white"/>
</svg>
